<?xml version="1.0" encoding="UTF-8" standalone="no"?>
<!-- Created with Inkscape (http://www.inkscape.org/) -->

<svg
   width="100mm"
   height="100mm"
   viewBox="0 0 100 100"
   version="1.1"
   id="svg5"
   xml:space="preserve"
   inkscape:version="1.2.2 (b0a8486541, 2022-12-01)"
   sodipodi:docname="rolling ball.svg"
   inkscape:export-filename="ball.png"
   inkscape:export-xdpi="8.1280003"
   inkscape:export-ydpi="8.1280003"
   xmlns:inkscape="http://www.inkscape.org/namespaces/inkscape"
   xmlns:sodipodi="http://sodipodi.sourceforge.net/DTD/sodipodi-0.dtd"
   xmlns="http://www.w3.org/2000/svg"
   xmlns:svg="http://www.w3.org/2000/svg"><sodipodi:namedview
     id="namedview7"
     pagecolor="#505050"
     bordercolor="#ffffff"
     borderopacity="1"
     inkscape:showpageshadow="0"
     inkscape:pageopacity="0"
     inkscape:pagecheckerboard="1"
     inkscape:deskcolor="#505050"
     inkscape:document-units="mm"
     showgrid="false"
     inkscape:zoom="2.3786088"
     inkscape:cx="207.68442"
     inkscape:cy="171.52884"
     inkscape:window-width="2560"
     inkscape:window-height="1369"
     inkscape:window-x="2552"
     inkscape:window-y="-8"
     inkscape:window-maximized="1"
     inkscape:current-layer="layer1" /><defs
     id="defs2" /><g
     inkscape:label="Vrstva 1"
     inkscape:groupmode="layer"
     id="layer1"><path
       style="fill:none;fill-opacity:1;stroke:#000000;stroke-width:11.9246;stroke-linecap:round;stroke-linejoin:round;stroke-dasharray:none;stroke-opacity:1"
       d="M 6.4825877,79.523836 C 6.6339748,47.855647 9.8459402,41.98721 9.8459402,41.98721 c 0,0 5.6545738,-16.711671 19.4824508,-23.971306 l 14.058955,-7.380951 c 0,0 23.900223,-6.6780032 36.201811,7.029477 l 12.301587,13.707481 c 0,0 6.297741,19.795441 -4.217691,36.20181 C 75.371471,86.766874 74.934743,86.204255 60.961039,90.419523 47.879137,94.365773 38.783511,90.125644 27.21955,73.548775 c 0,0 -5.27211,-22.14285 6.326527,-32.335592 11.598638,-10.192745 21.439905,-14.761906 31.281176,-5.975055 9.841268,8.786847 11.247163,21.439905 3.514736,28.820855 -7.73242,7.380951 -22.845799,6.678006 -24.954643,-7.38095"
       id="path233"
       sodipodi:nodetypes="ccscscsscsssc" /></g></svg>
